<?xml version="1.0" encoding="UTF-8"?>
<svg width="16px" height="16px" viewBox="0 0 16 16" version="1.1" xmlns="http://www.w3.org/2000/svg" xmlns:xlink="http://www.w3.org/1999/xlink">
    <!-- Generator: Sketch 50.2 (55047) - http://www.bohemiancoding.com/sketch -->
    <title>Combined Shape Copy</title>
    <desc>Created with Sketch.</desc>
    <defs></defs>
    <g id="PC" stroke="none" stroke-width="1" fill="none" fill-rule="evenodd">
        <path d="M3.55148188,0 L12.4472042,4.4408921e-16 C13.4526348,2.59394615e-16 14.3017757,0.746423081 14.430695,1.74355417 L15.9821769,13.7435542 C16.123808,14.8390059 15.3505836,15.8418596 14.255132,15.9834907 C14.1700923,15.9944855 14.0844336,16 13.9986861,16 L2,16 C0.8954305,16 2.5358847e-12,15.1045695 2.53574939e-12,14 C2.53573887e-12,13.9142525 0.0055144649,13.8285938 0.0165092548,13.7435542 L1.56799114,1.74355417 C1.69691037,0.746423081 2.54605134,6.28783804e-16 3.55148188,4.4408921e-16 Z M3.99945196,13 L3.99945196,14 L11.999452,14 L11.999452,13 L3.99945196,13 Z M10.299452,3 L10.299452,4.33333333 C10.299452,5.3999273 9.28687018,6.3 7.99945196,6.3 C6.71203375,6.3 5.69945196,5.3999273 5.69945196,4.33333333 L5.69945196,3 L4.29945196,3 L4.29945196,4.33333333 C4.29945196,6.21225803 5.97316168,7.7 7.99945196,7.7 C10.0257422,7.7 11.699452,6.21225803 11.699452,4.33333333 L11.699452,3 L10.299452,3 Z" id="Combined-Shape-Copy" fill="#555555"></path>
    </g>
</svg>