<?xml version="1.0" encoding="UTF-8"?>
<svg width="16px" height="16px" viewBox="0 0 16 16" version="1.1" xmlns="http://www.w3.org/2000/svg" xmlns:xlink="http://www.w3.org/1999/xlink">
    <!-- Generator: Sketch 50.2 (55047) - http://www.bohemiancoding.com/sketch -->
    <title>Fill 4 Copy</title>
    <desc>Created with Sketch.</desc>
    <defs></defs>
    <g id="PC" stroke="none" stroke-width="1" fill="none" fill-rule="evenodd">
        <path d="M8.0000529,0 C3.58171501,0 0,3.58171501 0,8.0000529 C0,12.418285 3.58171501,16 8.0000529,16 C12.418285,16 16,12.418285 16,8.0000529 C16,5.87828079 15.1571987,3.84347175 13.6569058,2.34317883 C12.1566129,0.842885915 10.1217192,0 8.0000529,0 Z M10.6666455,8.58670454 C10.3503411,8.69531317 10.0024465,8.55274451 9.85333973,8.25336724 C9.70664508,7.93333889 9.85333973,7.70670592 10.1466867,7.51999979 C10.2559513,7.44676884 10.3720713,7.38420197 10.493333,7.3333783 C11.0266853,7.02665889 11.4667058,6.62669222 11.1999979,6.00002909 C10.9670807,5.44170922 10.3585931,5.14036417 9.77333794,5.29336417 C9.47273345,5.30030429 9.18725758,5.42651713 8.9796253,5.64405177 C8.77209882,5.86158641 8.65953347,6.15277519 8.66670634,6.45337967 L8.66670634,9.77333794 C8.48545921,11.1040423 7.34287864,12.092311 6.00002909,12.0799965 C4.54742833,11.9732075 3.44930262,10.7207065 3.53336692,9.26668809 C3.53336692,8.49330916 4.25334079,7.93333889 5.20005343,7.45339157 C5.59999894,7.3333783 6.00002909,7.3333783 6.21335312,7.73332381 C6.42667714,8.13335396 6.02664699,8.42670094 5.68000074,8.58670454 C4.97333582,8.89333931 4.62668957,9.38670137 4.96002687,10.1066752 C5.10128368,10.4072797 5.35724289,10.6386311 5.67050039,10.7488901 C5.98382138,10.8592127 6.32824594,10.8391329 6.62669222,10.693348 C7.15799218,10.5134128 7.48760551,9.98270524 7.41338009,9.42669169 L7.41338009,6.41336819 C7.35303491,5.33070963 8.05062267,4.35079868 9.09335439,4.05332572 C10.1353667,3.70289202 11.2859453,4.00102092 12.0266761,4.81331106 C12.491262,5.46155626 12.6097942,6.29585167 12.3440596,7.04773315 C12.0784308,7.79969928 11.4620085,8.37429035 10.693348,8.58670454 L10.6666455,8.58670454 Z" id="Fill-4-Copy" fill="#555555"></path>
    </g>
</svg>