<?xml version="1.0" encoding="UTF-8"?>
<svg width="16px" height="16px" viewBox="0 0 16 16" version="1.1" xmlns="http://www.w3.org/2000/svg" xmlns:xlink="http://www.w3.org/1999/xlink">
    <!-- Generator: Sketch 50.2 (55047) - http://www.bohemiancoding.com/sketch -->
    <title>Group 11 Copy</title>
    <desc>Created with Sketch.</desc>
    <defs></defs>
    <g id="PC" stroke="none" stroke-width="1" fill="none" fill-rule="evenodd">
        <g id="Group-11-Copy" fill="#555555">
            <path d="M0,0 L11.3815761,0 L11.4016728,15.9872593 L0.0200056899,15.9872593 L0,0 Z M2.29596586,6.08093447 L4.57192603,6.08093447 L4.57192603,3.79621652 L2.29596586,3.79621652 L2.29596586,6.08093447 Z M6.84975249,10.6539259 L9.12571266,10.6539259 L9.12571266,8.3674302 L6.84975249,8.3674302 L6.84975249,10.6539259 Z M6.84975249,6.08093447 L9.12571266,6.08093447 L9.12571266,3.79621652 L6.84975249,3.79621652 L6.84975249,6.08093447 Z M2.29596586,10.6539259 L4.57192603,10.6539259 L4.57192603,8.3674302 L2.29596586,8.3674302 L2.29596586,10.6539259 Z" id="Fill-1"></path>
            <polygon id="Fill-2" points="12.4950213 4.51282051 15.9453314 4.54566382 15.9817923 15.9745185 12.5313912 15.9416752"></polygon>
        </g>
    </g>
</svg>